ply
format ascii 1.0
comment Created by Blender 2.81 (sub 16) - www.blender.org, source file: 'block.blend'
element vertex 40
property float x
property float y
property float z
property float nx
property float ny
property float nz
property uchar red
property uchar green
property uchar blue
property uchar alpha
element face 76
property list uchar uint vertex_indices
end_header
-1.000000 -0.950000 0.950000 -0.875576 -0.341563 0.341563 255 255 255 255
-1.000000 0.950000 -0.700000 -0.883450 0.392865 -0.255226 255 255 255 255
-1.000000 -0.950000 -0.700000 -0.883450 -0.392865 -0.255226 255 255 255 255
0.950000 1.000000 -0.700000 0.392865 0.883450 -0.255226 255 255 255 255
-0.950000 1.000000 0.950000 -0.341563 0.875576 0.341563 255 255 255 255
0.950000 1.000000 0.950000 0.341563 0.875576 0.341563 255 255 255 255
-0.903407 0.964645 -0.785355 -0.269173 0.723655 -0.635456 255 255 255 255
0.724118 0.785355 -0.964645 0.161962 0.506088 -0.847102 255 255 255 255
-0.724118 0.785355 -0.964645 -0.161962 0.506088 -0.847102 255 255 255 255
-0.950000 -1.000000 -0.700000 -0.392865 -0.883450 -0.255226 255 255 255 255
0.950000 -1.000000 0.950000 0.341563 -0.875576 0.341563 255 255 255 255
-0.950000 -1.000000 0.950000 -0.341563 -0.875576 0.341563 255 255 255 255
0.950000 -0.950000 1.000000 0.341563 -0.341563 0.875576 255 255 255 255
-0.950000 0.950000 1.000000 -0.341563 0.341563 0.875576 255 255 255 255
-0.950000 -0.950000 1.000000 -0.341563 -0.341563 0.875576 255 255 255 255
-0.785355 0.724118 -0.964645 -0.506088 0.161962 -0.847102 255 255 255 255
-0.964645 -0.903407 -0.785355 -0.723655 -0.269173 -0.635456 255 255 255 255
-0.964645 0.903407 -0.785355 -0.723655 0.269173 -0.635456 255 255 255 255
-0.700000 -0.700000 -1.000000 -0.163549 -0.163549 -0.972869 255 255 255 255
0.700000 0.700000 -1.000000 0.163549 0.163549 -0.972869 255 255 255 255
0.700000 -0.700000 -1.000000 0.163549 -0.163549 -0.972869 255 255 255 255
0.964645 0.903407 -0.785355 0.723655 0.269173 -0.635456 255 255 255 255
0.785355 -0.724118 -0.964645 0.506088 -0.161962 -0.847102 255 255 255 255
0.785355 0.724118 -0.964645 0.506088 0.161962 -0.847102 255 255 255 255
0.903407 -0.964645 -0.785355 0.269173 -0.723655 -0.635456 255 255 255 255
-0.724118 -0.785355 -0.964645 -0.161962 -0.506088 -0.847102 255 255 255 255
0.724118 -0.785355 -0.964645 0.161962 -0.506088 -0.847102 255 255 255 255
1.000000 0.950000 0.950000 0.875576 0.341563 0.341563 255 255 255 255
0.950000 0.950000 1.000000 0.341563 0.341563 0.875576 255 255 255 255
1.000000 -0.950000 0.950000 0.875576 -0.341563 0.341563 255 255 255 255
-1.000000 0.950000 0.950000 -0.875576 0.341563 0.341563 255 255 255 255
0.903407 0.964645 -0.785355 0.269173 0.723655 -0.635456 255 255 255 255
1.000000 0.950000 -0.700000 0.883450 0.392865 -0.255226 255 255 255 255
0.964645 -0.903407 -0.785355 0.723655 -0.269173 -0.635456 255 255 255 255
0.950000 -1.000000 -0.700000 0.392865 -0.883450 -0.255226 255 255 255 255
-0.700000 0.700000 -1.000000 -0.163549 0.163549 -0.972869 255 255 255 255
-0.950000 1.000000 -0.700000 -0.392865 0.883450 -0.255226 255 255 255 255
-0.785355 -0.724118 -0.964645 -0.506088 -0.161962 -0.847102 255 255 255 255
-0.903407 -0.964645 -0.785355 -0.269173 -0.723655 -0.635456 255 255 255 255
1.000000 -0.950000 -0.700000 0.883450 -0.392865 -0.255226 255 255 255 255
3 0 1 2
3 3 4 5
3 6 7 8
3 9 10 11
3 12 13 14
3 15 16 17
3 18 19 20
3 21 22 23
3 24 25 26
3 27 5 28
3 29 12 10
3 30 13 4
3 0 11 14
3 7 23 19
3 31 32 21
3 22 26 20
3 33 34 24
3 8 35 15
3 6 1 36
3 37 18 25
3 9 16 38
3 14 30 0
3 28 29 27
3 5 13 28
3 11 12 14
3 22 24 26
3 34 38 24
3 16 25 38
3 18 26 25
3 7 21 23
3 32 33 21
3 20 23 22
3 6 15 17
3 35 37 15
3 2 17 16
3 36 31 6
3 19 8 7
3 10 39 29
3 3 27 32
3 1 4 36
3 0 9 11
3 39 27 29
3 0 30 1
3 3 36 4
3 6 31 7
3 9 34 10
3 12 28 13
3 15 37 16
3 18 35 19
3 21 33 22
3 24 38 25
3 31 3 32
3 33 39 34
3 6 17 1
3 9 2 16
3 14 13 30
3 28 12 29
3 5 4 13
3 11 10 12
3 22 33 24
3 34 9 38
3 16 37 25
3 18 20 26
3 7 31 21
3 32 39 33
3 20 19 23
3 6 8 15
3 35 18 37
3 2 1 17
3 36 3 31
3 19 35 8
3 10 34 39
3 3 5 27
3 1 30 4
3 0 2 9
3 39 32 27
