{
    "asset" : {
        "generator" : "Khronos glTF Blender I/O v1.6.16",
        "version" : "2.0"
    },
    "scene" : 0,
    "scenes" : [
        {
            "name" : "Scene",
            "nodes" : [
                3
            ]
        }
    ],
    "nodes" : [
        {
            "mesh" : 0,
            "name" : "Cube",
            "rotation" : [
                1,
                0,
                0,
                8.90351188331806e-08
            ],
            "scale" : [
                0.5,
                0.5000000596046448,
                0.5000000596046448
            ],
            "translation" : [
                1.581041693687439,
                -0.26414650678634644,
                0.5
            ]
        },
        {
            "mesh" : 1,
            "name" : "Cylinder",
            "translation" : [
                -0.4893249273300171,
                1.4365562200546265,
                1
            ]
        },
        {
            "mesh" : 2,
            "name" : "Torus",
            "rotation" : [
                1,
                0,
                0,
                8.903511172775325e-08
            ],
            "scale" : [
                0.75,
                0.7500001192092896,
                0.7500001192092896
            ],
            "translation" : [
                -1.1709067821502686,
                -1.247132658958435,
                0.18750011920928955
            ]
        },
        {
            "children" : [
                0,
                1,
                2
            ],
            "mesh" : 3,
            "name" : "Plane"
        }
    ],
    "materials" : [
        {
            "doubleSided" : true,
            "name" : "Cube_mat.001",
            "pbrMetallicRoughness" : {
                "baseColorFactor" : [
                    0.19518877565860748,
                    0.6892094612121582,
                    0.8000000715255737,
                    1
                ],
                "metallicFactor" : 0,
                "roughnessFactor" : 0.20000000298023224
            }
        },
        {
            "doubleSided" : true,
            "name" : "Cone_mat",
            "pbrMetallicRoughness" : {
                "baseColorFactor" : [
                    0.03559878468513489,
                    0.06954554468393326,
                    0.8000000715255737,
                    1
                ],
                "roughnessFactor" : 0.20000000298023224
            }
        },
        {
            "doubleSided" : true,
            "name" : "Torus_mat",
            "pbrMetallicRoughness" : {
                "baseColorFactor" : [
                    0.8000000715255737,
                    0.2143077403306961,
                    0.7145773768424988,
                    1
                ],
                "roughnessFactor" : 0.800000011920929
            }
        },
        {
            "doubleSided" : true,
            "name" : "Plane_mat",
            "pbrMetallicRoughness" : {
                "baseColorFactor" : [
                    0.8000000715255737,
                    0.6635869145393372,
                    0.42485809326171875,
                    1
                ],
                "metallicFactor" : 0,
                "roughnessFactor" : 0.699999988079071
            }
        }
    ],
    "meshes" : [
        {
            "name" : "Cube.002",
            "primitives" : [
                {
                    "attributes" : {
                        "POSITION" : 0,
                        "NORMAL" : 1
                    },
                    "indices" : 2,
                    "material" : 0
                }
            ]
        },
        {
            "name" : "Cylinder",
            "primitives" : [
                {
                    "attributes" : {
                        "POSITION" : 3,
                        "NORMAL" : 4
                    },
                    "indices" : 5,
                    "material" : 1
                }
            ]
        },
        {
            "name" : "Torus",
            "primitives" : [
                {
                    "attributes" : {
                        "POSITION" : 6,
                        "NORMAL" : 7
                    },
                    "indices" : 8,
                    "material" : 2
                }
            ]
        },
        {
            "name" : "Plane",
            "primitives" : [
                {
                    "attributes" : {
                        "POSITION" : 9,
                        "NORMAL" : 10
                    },
                    "indices" : 11,
                    "material" : 3
                }
            ]
        }
    ],
    "accessors" : [
        {
            "bufferView" : 0,
            "componentType" : 5126,
            "count" : 24,
            "max" : [
                1,
                1,
                1
            ],
            "min" : [
                -1,
                -1,
                -1
            ],
            "type" : "VEC3"
        },
        {
            "bufferView" : 1,
            "componentType" : 5126,
            "count" : 24,
            "type" : "VEC3"
        },
        {
            "bufferView" : 2,
            "componentType" : 5123,
            "count" : 36,
            "type" : "SCALAR"
        },
        {
            "bufferView" : 3,
            "componentType" : 5126,
            "count" : 116,
            "max" : [
                1,
                1,
                1
            ],
            "min" : [
                -1,
                -1,
                -1
            ],
            "type" : "VEC3"
        },
        {
            "bufferView" : 4,
            "componentType" : 5126,
            "count" : 116,
            "type" : "VEC3"
        },
        {
            "bufferView" : 5,
            "componentType" : 5123,
            "count" : 282,
            "type" : "SCALAR"
        },
        {
            "bufferView" : 6,
            "componentType" : 5126,
            "count" : 576,
            "max" : [
                1.25,
                1.25,
                0.25
            ],
            "min" : [
                -1.25,
                -1.25,
                -0.25
            ],
            "type" : "VEC3"
        },
        {
            "bufferView" : 7,
            "componentType" : 5126,
            "count" : 576,
            "type" : "VEC3"
        },
        {
            "bufferView" : 8,
            "componentType" : 5123,
            "count" : 3456,
            "type" : "SCALAR"
        },
        {
            "bufferView" : 9,
            "componentType" : 5126,
            "count" : 4,
            "max" : [
                3,
                3,
                2.6226831550957286e-07
            ],
            "min" : [
                -3,
                -3,
                -2.6226831550957286e-07
            ],
            "type" : "VEC3"
        },
        {
            "bufferView" : 10,
            "componentType" : 5126,
            "count" : 4,
            "type" : "VEC3"
        },
        {
            "bufferView" : 11,
            "componentType" : 5123,
            "count" : 6,
            "type" : "SCALAR"
        }
    ],
    "bufferViews" : [
        {
            "buffer" : 0,
            "byteLength" : 288,
            "byteOffset" : 0
        },
        {
            "buffer" : 0,
            "byteLength" : 288,
            "byteOffset" : 288
        },
        {
            "buffer" : 0,
            "byteLength" : 72,
            "byteOffset" : 576
        },
        {
            "buffer" : 0,
            "byteLength" : 1392,
            "byteOffset" : 648
        },
        {
            "buffer" : 0,
            "byteLength" : 1392,
            "byteOffset" : 2040
        },
        {
            "buffer" : 0,
            "byteLength" : 564,
            "byteOffset" : 3432
        },
        {
            "buffer" : 0,
            "byteLength" : 6912,
            "byteOffset" : 3996
        },
        {
            "buffer" : 0,
            "byteLength" : 6912,
            "byteOffset" : 10908
        },
        {
            "buffer" : 0,
            "byteLength" : 6912,
            "byteOffset" : 17820
        },
        {
            "buffer" : 0,
            "byteLength" : 48,
            "byteOffset" : 24732
        },
        {
            "buffer" : 0,
            "byteLength" : 48,
            "byteOffset" : 24780
        },
        {
            "buffer" : 0,
            "byteLength" : 12,
            "byteOffset" : 24828
        }
    ],
    "buffers" : [
        {
            "byteLength" : 24840,
            "uri" : "data:application/octet-stream;base64,"
        }
    ]
}
