{
    "asset" : {
        "generator" : "Khronos glTF Blender I/O v1.6.16",
        "version" : "2.0"
    },
    "scene" : 0,
    "scenes" : [
        {
            "name" : "Scene",
            "nodes" : [
                3
            ]
        }
    ],
    "nodes" : [
        {
            "mesh" : 0,
            "name" : "Cone",
            "rotation" : [
                -0.7071068286895752,
                0,
                0,
                0.7071068286895752
            ],
            "translation" : [
                -0.29411399364471436,
                1.393930196762085,
                0.9999999403953552
            ]
        },
        {
            "mesh" : 1,
            "name" : "Cube",
            "rotation" : [
                -0.7071068286895752,
                0,
                0,
                0.7071068286895752
            ],
            "scale" : [
                0.5,
                0.5,
                0.5
            ],
            "translation" : [
                1.581041693687439,
                -0.2641465365886688,
                0.5
            ]
        },
        {
            "mesh" : 2,
            "name" : "Torus",
            "rotation" : [
                -0.7071068286895752,
                0,
                0,
                0.7071068286895752
            ],
            "scale" : [
                0.75,
                0.75,
                0.75
            ],
            "translation" : [
                -1.1709067821502686,
                -1.247132658958435,
                0.18750005960464478
            ]
        },
        {
            "children" : [
                0,
                1,
                2
            ],
            "mesh" : 3,
            "name" : "Plane"
        }
    ],
    "materials" : [
        {
            "doubleSided" : true,
            "name" : "Cone_mat",
            "pbrMetallicRoughness" : {
                "baseColorFactor" : [
                    0.03559878468513489,
                    0.06954554468393326,
                    0.8000000715255737,
                    1
                ],
                "roughnessFactor" : 0.20000000298023224
            }
        },
        {
            "doubleSided" : true,
            "name" : "Cube_mat",
            "pbrMetallicRoughness" : {
                "baseColorFactor" : [
                    0.19518877565860748,
                    0.6892094612121582,
                    0.8000000715255737,
                    1
                ],
                "metallicFactor" : 0,
                "roughnessFactor" : 0.20000000298023224
            }
        },
        {
            "doubleSided" : true,
            "name" : "Torus_mat",
            "pbrMetallicRoughness" : {
                "baseColorFactor" : [
                    0.8000000715255737,
                    0.2143077403306961,
                    0.7145773768424988,
                    1
                ],
                "roughnessFactor" : 0.800000011920929
            }
        },
        {
            "doubleSided" : true,
            "name" : "Plane_mat",
            "pbrMetallicRoughness" : {
                "baseColorFactor" : [
                    0.8000000715255737,
                    0.6635869145393372,
                    0.42485809326171875,
                    1
                ],
                "metallicFactor" : 0,
                "roughnessFactor" : 0.699999988079071
            }
        }
    ],
    "meshes" : [
        {
            "name" : "Cone",
            "primitives" : [
                {
                    "attributes" : {
                        "POSITION" : 0,
                        "NORMAL" : 1
                    },
                    "indices" : 2,
                    "material" : 0
                }
            ]
        },
        {
            "name" : "Cube.001",
            "primitives" : [
                {
                    "attributes" : {
                        "POSITION" : 3,
                        "NORMAL" : 4
                    },
                    "indices" : 5,
                    "material" : 1
                }
            ]
        },
        {
            "name" : "Torus",
            "primitives" : [
                {
                    "attributes" : {
                        "POSITION" : 6,
                        "NORMAL" : 7
                    },
                    "indices" : 8,
                    "material" : 2
                }
            ]
        },
        {
            "name" : "Plane",
            "primitives" : [
                {
                    "attributes" : {
                        "POSITION" : 9,
                        "NORMAL" : 10
                    },
                    "indices" : 11,
                    "material" : 3
                }
            ]
        }
    ],
    "accessors" : [
        {
            "bufferView" : 0,
            "componentType" : 5126,
            "count" : 147,
            "max" : [
                1,
                1,
                1
            ],
            "min" : [
                -1,
                -1,
                -1
            ],
            "type" : "VEC3"
        },
        {
            "bufferView" : 1,
            "componentType" : 5126,
            "count" : 147,
            "type" : "VEC3"
        },
        {
            "bufferView" : 2,
            "componentType" : 5123,
            "count" : 186,
            "type" : "SCALAR"
        },
        {
            "bufferView" : 3,
            "componentType" : 5126,
            "count" : 24,
            "max" : [
                1,
                1,
                1
            ],
            "min" : [
                -1,
                -1,
                -1
            ],
            "type" : "VEC3"
        },
        {
            "bufferView" : 4,
            "componentType" : 5126,
            "count" : 24,
            "type" : "VEC3"
        },
        {
            "bufferView" : 5,
            "componentType" : 5123,
            "count" : 36,
            "type" : "SCALAR"
        },
        {
            "bufferView" : 6,
            "componentType" : 5126,
            "count" : 576,
            "max" : [
                1.25,
                0.25,
                1.25
            ],
            "min" : [
                -1.25,
                -0.25,
                -1.25
            ],
            "type" : "VEC3"
        },
        {
            "bufferView" : 7,
            "componentType" : 5126,
            "count" : 576,
            "type" : "VEC3"
        },
        {
            "bufferView" : 8,
            "componentType" : 5123,
            "count" : 3456,
            "type" : "SCALAR"
        },
        {
            "bufferView" : 9,
            "componentType" : 5126,
            "count" : 4,
            "max" : [
                3,
                3,
                1.3113415775478643e-07
            ],
            "min" : [
                -3,
                -3,
                -1.3113415775478643e-07
            ],
            "type" : "VEC3"
        },
        {
            "bufferView" : 10,
            "componentType" : 5126,
            "count" : 4,
            "type" : "VEC3"
        },
        {
            "bufferView" : 11,
            "componentType" : 5123,
            "count" : 6,
            "type" : "SCALAR"
        }
    ],
    "bufferViews" : [
        {
            "buffer" : 0,
            "byteLength" : 1764,
            "byteOffset" : 0
        },
        {
            "buffer" : 0,
            "byteLength" : 1764,
            "byteOffset" : 1764
        },
        {
            "buffer" : 0,
            "byteLength" : 372,
            "byteOffset" : 3528
        },
        {
            "buffer" : 0,
            "byteLength" : 288,
            "byteOffset" : 3900
        },
        {
            "buffer" : 0,
            "byteLength" : 288,
            "byteOffset" : 4188
        },
        {
            "buffer" : 0,
            "byteLength" : 72,
            "byteOffset" : 4476
        },
        {
            "buffer" : 0,
            "byteLength" : 6912,
            "byteOffset" : 4548
        },
        {
            "buffer" : 0,
            "byteLength" : 6912,
            "byteOffset" : 11460
        },
        {
            "buffer" : 0,
            "byteLength" : 6912,
            "byteOffset" : 18372
        },
        {
            "buffer" : 0,
            "byteLength" : 48,
            "byteOffset" : 25284
        },
        {
            "buffer" : 0,
            "byteLength" : 48,
            "byteOffset" : 25332
        },
        {
            "buffer" : 0,
            "byteLength" : 12,
            "byteOffset" : 25380
        }
    ],
    "buffers" : [
        {
            "byteLength" : 25392,
            "uri" : "data:application/octet-stream;base64,"
        }
    ]
}
